<?xml version="1.0" encoding="utf-8"?>
<!-- Generator: Adobe Illustrator 18.0.0, SVG Export Plug-In . SVG Version: 6.00 Build 0)  -->
<!DOCTYPE svg PUBLIC "-//W3C//DTD SVG 1.1//EN" "http://www.w3.org/Graphics/SVG/1.1/DTD/svg11.dtd">
<svg version="1.1" id="Calque_1" xmlns="http://www.w3.org/2000/svg" xmlns:xlink="http://www.w3.org/1999/xlink" x="0px" y="0px"
	 viewBox="0 0 700 202" style="enable-background:new 0 0 700 202;" xml:space="preserve">
<g>
	<path d="M652.2,200.2h18.1L700,21.1V1.8h-59.9v15.4h43.9L652.2,200.2z M616.3,200.2h18.1V1.8h-15.7c-4.7,4.4-14,11.5-20.6,14.6
		v18.4c5.2-2.7,14-8.8,18.1-12.4V200.2z M573.6,53.2h18.1V27.9c0-18.1-8.2-27.7-28.6-27.7c-18.4,0-28.6,9.6-28.6,29.1v23.9
		c0,10.2,2.7,16.8,7.7,25.3l26.6,46.4c3.8,6.9,5.2,12.1,5.2,19v27.7c0,9.3-3.6,14.8-11,14.8c-8,0-11.5-5.5-11.5-14.8v-26.1h-18.1
		v27.2c0,20,9.6,29.1,29.7,29.1c18.1,0,29.1-10.4,29.1-29.1v-31.3c0-8.8-2.5-17.3-6.6-24.2l-28.8-49.4c-3-5.2-4.1-11.5-4.1-17.9V29
		c0-7.7,1.9-13.5,10.4-13.5c8.5,0,10.4,5.8,10.4,13.5V53.2z M510.9,53.2H529V27.9c0-18.1-8.2-27.7-28.6-27.7
		c-18.4,0-28.6,9.6-28.6,29.1v23.9c0,10.2,2.7,16.8,7.7,25.3l26.6,46.4c3.8,6.9,5.2,12.1,5.2,19v27.7c0,9.3-3.6,14.8-11,14.8
		c-8,0-11.5-5.5-11.5-14.8v-26.1h-18.1v27.2c0,20,9.6,29.1,29.7,29.1c18.1,0,29.1-10.4,29.1-29.1v-31.3c0-8.8-2.5-17.3-6.6-24.2
		l-28.8-49.4c-3-5.2-4.1-11.5-4.1-17.9V29c0-7.7,1.9-13.5,10.4-13.5c8.5,0,10.4,5.8,10.4,13.5V53.2z M448.2,53.2h18.1V27.9
		c0-18.1-8.2-27.7-28.6-27.7c-18.4,0-28.6,9.6-28.6,29.1v23.9c0,10.2,2.7,16.8,7.7,25.3l26.6,46.4c3.8,6.9,5.2,12.1,5.2,19v27.7
		c0,9.3-3.6,14.8-11,14.8c-8,0-11.5-5.5-11.5-14.8v-26.1h-18.1v27.2c0,20,9.6,29.1,29.7,29.1c18.1,0,29.1-10.4,29.1-29.1v-31.3
		c0-8.8-2.5-17.3-6.6-24.2l-28.8-49.4c-3-5.2-4.1-11.5-4.1-17.9V29c0-7.7,1.9-13.5,10.4-13.5c8.5,0,10.4,5.8,10.4,13.5V53.2z
		 M356.3,200.2h48.1v-15.4h-29.9V1.8h-18.1V200.2z M329.1,200.2h18.1v-84.9c0-13.7-7.7-17.6-20.6-18.4v-0.5c14-0.8,19.8-6,19.8-21.4
		V24.6c0-19.8-10.7-22.8-28-22.8h-33.8v198.3h18.1v-95.3h12.1c8.5,0,14.3,2.5,14.3,12.1V200.2z M302.8,89.5V17.2h10.2
		c9.3,0,15.4,1.9,15.4,13.5v44.5c0,11.8-4.9,14.3-13.5,14.3H302.8z M257.9,200.2H276V1.8h-18.1V200.2z M216.6,118.3h14.6v65.4
		c-2.5,1.6-7.1,2.7-12.1,2.7c-6.3,0-14.3-3.6-14.3-19.8V34c0-11,2.7-18.4,13.2-18.4c10.4,0,13.2,7.4,13.2,18.4v19.8h18.1V31.5
		c0-20.6-11.5-31.3-31.3-31.3c-19.8,0-31.3,10.7-31.3,31.3v135.4c0,22.8,9.1,34.9,34.1,34.9c9.3,0,19-2.2,28.6-6v-92.8h-32.7V118.3z
		 M156.3,129.8h-28L142,15.6h0.5L156.3,129.8z M165.6,200.2h18.1L154.7,1.8h-24.7l-29.1,198.3H119l7.4-54.9h31.9L165.6,200.2z
		 M48.9,179.3h-0.5L28,1.8H0v198.3h15.9V17.2h0.5l20.9,182.9h22.5L80.7,17.2h0.5v182.9h15.9V1.8h-28L48.9,179.3z"/>
</g>
</svg>
