<?xml version="1.0" encoding="utf-8"?>
<!-- Generator: Adobe Illustrator 18.0.0, SVG Export Plug-In . SVG Version: 6.00 Build 0)  -->
<!DOCTYPE svg PUBLIC "-//W3C//DTD SVG 1.1//EN" "http://www.w3.org/Graphics/SVG/1.1/DTD/svg11.dtd">
<svg version="1.1" id="Calque_1" xmlns="http://www.w3.org/2000/svg" xmlns:xlink="http://www.w3.org/1999/xlink" x="0px" y="0px"
	 viewBox="0 0 700 202" style="enable-background:new 0 0 700 202;" xml:space="preserve">
<path d="M568,200.3h18.2L616,20.9V1.7h-60.1v15.4H600L568,200.3z M531.9,200.3h18.2V1.7h-15.7c-4.7,4.4-14.1,11.6-20.7,14.6v18.4
	c5.2-2.8,14.1-8.8,18.2-12.4V200.3z M461.9,53.1h18.2V27.8c0-18.2-8.3-27.8-28.7-27.8c-18.5,0-28.7,9.6-28.7,29.2v23.9
	c0,10.2,2.8,16.8,7.7,25.3l26.7,46.5c3.9,6.9,5.2,12.1,5.2,19v27.8c0,9.4-3.6,14.9-11,14.9c-8,0-11.6-5.5-11.6-14.9v-26.1h-18.2
	v27.2c0,20.1,9.6,29.2,29.8,29.2c18.2,0,29.2-10.5,29.2-29.2v-31.4c0-8.8-2.5-17.3-6.6-24.2l-28.9-49.5c-3-5.2-4.1-11.6-4.1-17.9
	V28.9c0-7.7,1.9-13.5,10.5-13.5c8.5,0,10.5,5.8,10.5,13.5V53.1z M352.6,202h14.9L421,0h-14.9L352.6,202z M332.1,53.1h18.2V27.8
	c0-18.2-8.3-27.8-28.7-27.8C303.2,0,293,9.6,293,29.2v23.9c0,10.2,2.8,16.8,7.7,25.3l26.7,46.5c3.9,6.9,5.2,12.1,5.2,19v27.8
	c0,9.4-3.6,14.9-11,14.9c-8,0-11.6-5.5-11.6-14.9v-26.1h-18.2v27.2c0,20.1,9.6,29.2,29.8,29.2c18.2,0,29.2-10.5,29.2-29.2v-31.4
	c0-8.8-2.5-17.3-6.6-24.2l-28.9-49.5c-3-5.2-4.1-11.6-4.1-17.9V28.9c0-7.7,1.9-13.5,10.5-13.5c8.5,0,10.5,5.8,10.5,13.5V53.1z
	 M240.9,129.9h-28.1l13.8-114.5h0.6L240.9,129.9z M250.3,200.3h18.2L239.2,1.7h-24.8l-29.2,198.7h18.2l7.4-55h32L250.3,200.3z
	 M133.1,179.4h-0.6L112.1,1.7H84v198.7h16V17.1h0.6l21,183.3h22.6l21-183.3h0.6v183.3h16V1.7h-28.1L133.1,179.4z"/>
</svg>
